<svg width="241" height="62" viewBox="0 0 241 62" fill="none" xmlns="http://www.w3.org/2000/svg">
<path d="M68.2693 48.7064V29.6434H64.7416V24.9982H68.2693V23.9026C68.2985 20.9227 69.2115 18.6293 71.0082 17.0224C72.8195 15.401 75.3686 14.5903 78.6553 14.5903C80.6273 14.5903 83.0229 15.0212 85.8422 15.883L84.9219 21.1199C83.4904 20.6963 82.3802 20.426 81.5914 20.3092C80.8026 20.1777 79.9553 20.1119 79.0497 20.1119C76.0989 20.1119 74.6236 21.4193 74.6236 24.0341V24.9982H79.2907V29.6434H74.6236V48.7064H68.2693ZM88.8002 48.7064H82.4459V24.9982H88.8002V48.7064Z" fill="white"/>
<path d="M107.359 30.9362C106.497 30.8193 105.738 30.7609 105.08 30.7609C102.685 30.7609 101.114 31.5716 100.369 33.1931V48.7064H94.037V24.9982H100.019L100.194 27.8248C101.465 25.6482 103.225 24.56 105.475 24.56C106.176 24.56 106.833 24.6549 107.447 24.8448L107.359 30.9362Z" fill="white"/>
<path d="M123.267 42.1548C123.267 41.3806 122.88 40.7744 122.105 40.3362C121.346 39.8834 120.119 39.4816 118.424 39.1311C112.786 37.9478 109.967 35.5522 109.967 31.9441C109.967 29.8406 110.836 28.0877 112.574 26.6854C114.327 25.2684 116.613 24.56 119.432 24.56C122.441 24.56 124.844 25.2684 126.641 26.6854C128.452 28.1023 129.358 29.9429 129.358 32.2071H123.026C123.026 31.3014 122.734 30.5564 122.149 29.9721C121.565 29.3732 120.652 29.0737 119.41 29.0737C118.344 29.0737 117.519 29.3147 116.934 29.7968C116.35 30.2788 116.058 30.8924 116.058 31.6374C116.058 32.3385 116.387 32.9082 117.044 33.3464C117.716 33.7701 118.841 34.1426 120.418 34.4639C121.996 34.7707 123.325 35.1213 124.406 35.5157C127.751 36.7427 129.424 38.8681 129.424 41.8919C129.424 44.0538 128.496 45.8067 126.641 47.1506C124.786 48.4799 122.39 49.1446 119.454 49.1446C117.468 49.1446 115.7 48.794 114.152 48.0928C112.618 47.3771 111.413 46.4057 110.536 45.1786C109.66 43.937 109.222 42.6004 109.222 41.1688H115.225C115.284 42.2936 115.7 43.1555 116.474 43.7544C117.248 44.3533 118.286 44.6527 119.586 44.6527C120.798 44.6527 121.711 44.4263 122.325 43.9735C122.953 43.506 123.267 42.8998 123.267 42.1548Z" fill="white"/>
<path d="M141.103 19.1698V24.9982H145.156V29.6434H141.103V41.4756C141.103 42.352 141.271 42.9802 141.607 43.36C141.943 43.7398 142.585 43.9297 143.535 43.9297C144.236 43.9297 144.857 43.8785 145.397 43.7763V48.5749C144.156 48.9547 142.877 49.1446 141.563 49.1446C137.122 49.1446 134.858 46.9023 134.77 42.4178V29.6434H131.308V24.9982H134.77V19.1698H141.103Z" fill="white"/>
<path d="M170.026 37.0714C170.026 40.7233 169.193 43.6521 167.528 45.8579C165.877 48.049 163.642 49.1446 160.823 49.1446C158.427 49.1446 156.492 48.312 155.016 46.6467V57.8215H148.684V24.9982H154.556L154.775 27.3208C156.309 25.4802 158.31 24.56 160.779 24.56C163.701 24.56 165.972 25.6409 167.593 27.8029C169.215 29.9648 170.026 32.9447 170.026 36.7427V37.0714ZM163.693 36.6113C163.693 34.4055 163.299 32.7037 162.51 31.5059C161.736 30.3081 160.604 29.7092 159.114 29.7092C157.127 29.7092 155.761 30.4687 155.016 31.9879V41.6947C155.791 43.2577 157.171 44.0392 159.158 44.0392C162.181 44.0392 163.693 41.5632 163.693 36.6113Z" fill="white"/>
<path d="M187.708 48.7064C187.416 48.1367 187.204 47.4282 187.073 46.5809C185.539 48.29 183.545 49.1446 181.091 49.1446C178.768 49.1446 176.84 48.4726 175.306 47.1287C173.787 45.7848 173.027 44.0904 173.027 42.0453C173.027 39.5328 173.955 37.6046 175.81 36.2607C177.68 34.9168 180.375 34.2375 183.895 34.2229H186.81V32.8644C186.81 31.7688 186.525 30.8924 185.955 30.235C185.4 29.5777 184.516 29.249 183.304 29.249C182.238 29.249 181.398 29.5046 180.784 30.0159C180.185 30.5272 179.886 31.2283 179.886 32.1194H173.553C173.553 30.7463 173.977 29.4754 174.824 28.3068C175.671 27.1382 176.869 26.2252 178.418 25.5679C179.966 24.8959 181.704 24.56 183.633 24.56C186.554 24.56 188.869 25.2977 190.578 26.773C192.302 28.2338 193.164 30.2935 193.164 32.952V43.2285C193.179 45.4781 193.493 47.1799 194.106 48.3339V48.7064H187.708ZM182.471 44.3022C183.406 44.3022 184.268 44.0977 185.057 43.6886C185.846 43.265 186.43 42.7026 186.81 42.0015V37.9259H184.443C181.273 37.9259 179.586 39.0215 179.382 41.2127L179.36 41.5851C179.36 42.374 179.637 43.024 180.192 43.5353C180.748 44.0465 181.507 44.3022 182.471 44.3022Z" fill="white"/>
<path d="M210.868 42.1548C210.868 41.3806 210.481 40.7744 209.707 40.3362C208.947 39.8834 207.72 39.4816 206.026 39.1311C200.387 37.9478 197.568 35.5522 197.568 31.9441C197.568 29.8406 198.437 28.0877 200.176 26.6854C201.929 25.2684 204.215 24.56 207.034 24.56C210.043 24.56 212.446 25.2684 214.243 26.6854C216.054 28.1023 216.96 29.9429 216.96 32.2071H210.627C210.627 31.3014 210.335 30.5564 209.751 29.9721C209.167 29.3732 208.254 29.0737 207.012 29.0737C205.946 29.0737 205.12 29.3147 204.536 29.7968C203.952 30.2788 203.66 30.8924 203.66 31.6374C203.66 32.3385 203.988 32.9082 204.646 33.3464C205.317 33.7701 206.442 34.1426 208.02 34.4639C209.598 34.7707 210.927 35.1213 212.008 35.5157C215.353 36.7427 217.025 38.8681 217.025 41.8919C217.025 44.0538 216.098 45.8067 214.243 47.1506C212.388 48.4799 209.992 49.1446 207.056 49.1446C205.069 49.1446 203.302 48.794 201.753 48.0928C200.219 47.3771 199.014 46.4057 198.138 45.1786C197.261 43.937 196.823 42.6004 196.823 41.1688H202.827C202.885 42.2936 203.302 43.1555 204.076 43.7544C204.85 44.3533 205.887 44.6527 207.187 44.6527C208.4 44.6527 209.313 44.4263 209.926 43.9735C210.554 43.506 210.868 42.8998 210.868 42.1548Z" fill="white"/>
<path d="M233.963 42.1548C233.963 41.3806 233.576 40.7744 232.802 40.3362C232.042 39.8834 230.815 39.4816 229.121 39.1311C223.482 37.9478 220.663 35.5522 220.663 31.9441C220.663 29.8406 221.532 28.0877 223.27 26.6854C225.023 25.2684 227.309 24.56 230.128 24.56C233.138 24.56 235.541 25.2684 237.337 26.6854C239.149 28.1023 240.054 29.9429 240.054 32.2071H233.722C233.722 31.3014 233.43 30.5564 232.845 29.9721C232.261 29.3732 231.348 29.0737 230.107 29.0737C229.04 29.0737 228.215 29.3147 227.631 29.7968C227.046 30.2788 226.754 30.8924 226.754 31.6374C226.754 32.3385 227.083 32.9082 227.74 33.3464C228.412 33.7701 229.537 34.1426 231.114 34.4639C232.692 34.7707 234.021 35.1213 235.102 35.5157C238.447 36.7427 240.12 38.8681 240.12 41.8919C240.12 44.0538 239.192 45.8067 237.337 47.1506C235.482 48.4799 233.086 49.1446 230.15 49.1446C228.164 49.1446 226.396 48.794 224.848 48.0928C223.314 47.3771 222.109 46.4057 221.232 45.1786C220.356 43.937 219.918 42.6004 219.918 41.1688H225.921C225.98 42.2936 226.396 43.1555 227.17 43.7544C227.945 44.3533 228.982 44.6527 230.282 44.6527C231.494 44.6527 232.407 44.4263 233.021 43.9735C233.649 43.506 233.963 42.8998 233.963 42.1548Z" fill="white"/>
<path d="M26.503 55.8241L8.93649 33.2228C5.51066 28.2826 8.8636 24.1452 12.0708 20.0078L24.4621 8.15131C27.159 4.26091 25.3873 1.60556 23.3464 0C18.8272 5.00194 13.2876 9.2011 8.54971 13.956C5.48833 17.2907 2.35406 20.5018 0.969149 24.1452C-0.561543 28.5913 -0.488652 32.2347 2.71851 36.3104L15.7658 53.107C19.1188 56.9974 23.15 56.6886 26.503 55.8241Z" fill="#FFC534"/>
<path d="M22.1438 33.9258L39.7371 16.0161C43.2557 21.9043 42.6851 26.6475 39.5468 29.3462L26.3281 41.4495L40.9733 61.4854C45.7283 59.1956 44.2067 54.6978 41.5439 51.1813L35.3625 42.2673C40.688 36.9516 48.1057 32.2084 49.342 24.3576C50.293 16.9157 45.2528 9.31023 40.1174 5.05771L22.8095 22.0678C14.8212 29.8368 22.1462 34.2795 22.1438 33.9258Z" fill="#2FB6BD"/>
</svg>
