<?xml version="1.0" encoding="UTF-8" standalone="no"?>
<svg
   xmlns:dc="http://purl.org/dc/elements/1.1/"
   xmlns:cc="http://creativecommons.org/ns#"
   xmlns:rdf="http://www.w3.org/1999/02/22-rdf-syntax-ns#"
   xmlns:svg="http://www.w3.org/2000/svg"
   xmlns="http://www.w3.org/2000/svg"
   xmlns:sodipodi="http://sodipodi.sourceforge.net/DTD/sodipodi-0.dtd"
   xmlns:inkscape="http://www.inkscape.org/namespaces/inkscape"
   sodipodi:docname="laboratary.svg"
   inkscape:version="1.0 (4035a4fb49, 2020-05-01)"
   id="svg907"
   version="1.1"
   viewBox="0 0 35 35"
   height="35mm"
   width="35mm">
  <defs
     id="defs901" />
  <sodipodi:namedview
     inkscape:window-maximized="0"
     inkscape:window-y="0"
     inkscape:window-x="76"
     inkscape:window-height="728"
     inkscape:window-width="1274"
     showguides="false"
     showgrid="false"
     inkscape:document-rotation="0"
     inkscape:current-layer="layer1"
     inkscape:document-units="mm"
     inkscape:cy="72.555882"
     inkscape:cx="79.92916"
     inkscape:zoom="2.8"
     inkscape:pageshadow="2"
     inkscape:pageopacity="0.0"
     borderopacity="1.0"
     bordercolor="#666666"
     pagecolor="#ffffff"
     id="base" />
  <metadata
     id="metadata904">
    <rdf:RDF>
      <cc:Work
         rdf:about="">
        <dc:format>image/svg+xml</dc:format>
        <dc:type
           rdf:resource="http://purl.org/dc/dcmitype/StillImage" />
        <dc:title></dc:title>
      </cc:Work>
    </rdf:RDF>
  </metadata>
  <g
     id="layer1"
     inkscape:groupmode="layer"
     inkscape:label="Layer 1">
    <g
       style="stroke:#f8ce64;stroke-opacity:1"
       transform="matrix(0.26458333,0,0,0.26458333,-145.92474,-150.97508)"
       id="g928">
      <path
         style="fill:#f6ce64;fill-opacity:1;stroke:#f8ce64;stroke-width:1px;stroke-linecap:butt;stroke-linejoin:miter;stroke-opacity:1"
         d="m 630.63455,677.14891 -31.11598,-18.29116 3.36389,-4.83559 30.48526,18.08091 z"
         id="path940"
         inkscape:connector-curvature="0" />
      <g
         style="stroke:#f8ce64;stroke-opacity:1"
         id="g920">
        <g
           style="stroke:#f8ce64;stroke-opacity:1"
           id="g903">
          <path
             style="fill:none;fill-opacity:1;stroke:#f8ce64;stroke-width:2;stroke-linecap:butt;stroke-linejoin:miter;stroke-miterlimit:4;stroke-dasharray:none;stroke-opacity:1"
             d="M 680.8875,701.14855 H 603.28472 V 688.0661 c 15.98977,0.002 33.10594,-0.002 35.49265,0 31.82555,-12.13514 33.05515,-46.54662 10.89062,-63.33102 l -16.67193,27.46922 -2.27442,-1.37185 -5.55341,7.60482 -8.40972,-5.46632 5.25608,-7.779 -3.36389,-2.31267 37.63352,-64.12415 2.9434,0.42048 3.99462,-6.93802 9.67118,6.72778 -3.78437,6.30729 1.89218,1.26146 -15.34774,26.91112 c 20.3148,14.0084 36.98021,42.94795 7.35851,74.63631 -0.32365,0.0242 4.17254,0.28903 17.87067,-0.28458 z"
             id="path934"
             inkscape:connector-curvature="0"
             sodipodi:nodetypes="ccccccccccccccccccccc" />
          <path
             style="opacity:1;fill:none;fill-opacity:1;stroke:#f8ce64;stroke-width:2;stroke-linecap:round;stroke-linejoin:round;stroke-miterlimit:4;stroke-dasharray:none;stroke-dashoffset:0;stroke-opacity:1;paint-order:markers stroke fill"
             d="m 595.33117,576.79087 -1.4123,0.0743 0.14866,10.72019 h 12.80955 v 51.93005 h -52.1403 v -51.93005 h 12.57117 v -10.79452 0 l -1.59814,0.0372 m 17.77769,0.19254 1.21414,0.0526 -0.0743,10.51218 h -8.25087 l 10e-6,-10.40706 h 1.53961"
             id="rect954"
             inkscape:connector-curvature="0"
             sodipodi:nodetypes="ccccccccccccc" />
        </g>
        <path
           sodipodi:nodetypes="ccsssccccccccc"
           inkscape:connector-curvature="0"
           id="rect967"
           d="m 559.57739,591.88029 h 7.58189 c 0.39985,10.74754 -0.17041,22.60353 0.17793,33.29998 0.0111,0.33983 -0.041,0.68544 0.0323,1.01285 1.06223,4.74502 7.68638,4.01202 8.55187,0.62128 0.94859,-3.71632 0.0513,-12.6542 0.30642,-34.93411 h 8.77119 l -0.28973,34.04417 c 0.79462,5.05111 9.1429,4.55541 9.19803,-0.22296 l -0.28577,-33.82121 h 8.47386 v 43.40998 h -42.518 z"
           style="opacity:1;fill:none;fill-opacity:1;stroke:#f8ce64;stroke-width:2;stroke-linecap:round;stroke-linejoin:round;stroke-miterlimit:4;stroke-dasharray:none;stroke-dashoffset:0;stroke-opacity:1;paint-order:markers stroke fill" />
      </g>
    </g>
  </g>
</svg>
