<svg width="304" height="315" viewBox="0 0 304 315" fill="none" xmlns="http://www.w3.org/2000/svg">
<path d="M160.577 280.212L73.2404 169.193C56.208 144.926 72.878 124.603 88.8232 104.28L150.43 46.0399C163.838 26.9299 155.03 13.8866 144.883 6C122.415 30.5699 94.8728 51.1965 71.3174 74.553C56.097 90.9329 40.5142 106.706 33.6288 124.603C26.0186 146.443 26.381 164.339 42.3262 184.359L107.194 266.865C123.864 285.975 143.907 284.459 160.577 280.212Z" fill="#5D62B5" fill-opacity="0.15"/>
<path d="M138.901 172.653L226.371 84.6792C243.865 113.602 241.028 136.901 225.425 150.157L159.705 209.61L232.517 308.028C256.158 296.78 248.593 274.686 235.354 257.413L204.622 213.627C231.099 187.516 267.978 164.217 274.124 125.653C278.852 89.098 253.794 51.7393 228.262 30.8506L142.211 114.405C102.495 152.568 138.914 174.39 138.901 172.653Z" fill="#5D62B5" fill-opacity="0.15"/>
</svg>
