<svg width="844" height="194" viewBox="0 0 844 194" fill="none" xmlns="http://www.w3.org/2000/svg">
<path d="M345.89 69.0846L312.29 150.385H282.89L249.44 69.0846H278.69L298.19 118.735L318.74 69.0846H345.89ZM453.158 67.7346C463.158 67.7346 471.108 70.7346 477.008 76.7346C483.008 82.7346 486.008 91.7846 486.008 103.885V150.385H457.508V108.535C457.508 102.835 456.408 98.6346 454.208 95.9346C452.108 93.2346 449.108 91.8846 445.208 91.8846C440.908 91.8846 437.458 93.3846 434.858 96.3846C432.258 99.3846 430.958 103.935 430.958 110.035V150.385H402.458V108.535C402.458 97.4346 398.358 91.8846 390.158 91.8846C385.758 91.8846 382.258 93.3846 379.658 96.3846C377.058 99.3846 375.758 103.935 375.758 110.035V150.385H347.258V69.0846H374.408V77.6346C377.408 74.3346 380.958 71.8846 385.058 70.2846C389.258 68.5846 393.808 67.7346 398.708 67.7346C404.408 67.7346 409.508 68.7846 414.008 70.8846C418.508 72.9846 422.158 76.1846 424.958 80.4846C428.158 76.3846 432.208 73.2346 437.108 71.0346C442.008 68.8346 447.358 67.7346 453.158 67.7346Z" fill="white"/>
<path d="M556.413 151.35C547.413 151.35 539.363 149.55 532.263 145.95C525.163 142.35 519.613 137.35 515.613 130.95C511.713 124.55 509.763 117.3 509.763 109.2C509.763 101.1 511.713 93.9 515.613 87.6C519.613 81.2 525.163 76.25 532.263 72.75C539.363 69.15 547.413 67.35 556.413 67.35C565.613 67.35 573.563 69.35 580.263 73.35C586.963 77.25 591.713 82.7 594.513 89.7L572.463 100.95C568.763 93.65 563.363 90 556.263 90C551.163 90 546.913 91.7 543.513 95.1C540.213 98.5 538.563 103.2 538.563 109.2C538.563 115.3 540.213 120.1 543.513 123.6C546.913 127 551.163 128.7 556.263 128.7C563.363 128.7 568.763 125.05 572.463 117.75L594.513 129C591.713 136 586.963 141.5 580.263 145.5C573.563 149.4 565.613 151.35 556.413 151.35ZM684.315 68.7V150H657.165V141.9C651.865 148.2 643.865 151.35 633.165 151.35C625.765 151.35 619.015 149.65 612.915 146.25C606.915 142.75 602.115 137.8 598.515 131.4C595.015 125 593.265 117.6 593.265 109.2C593.265 100.8 595.015 93.45 598.515 87.15C602.115 80.75 606.915 75.85 612.915 72.45C619.015 69.05 625.765 67.35 633.165 67.35C642.765 67.35 650.315 70.15 655.815 75.75V68.7H684.315ZM639.165 128.7C644.165 128.7 648.265 127 651.465 123.6C654.665 120.1 656.265 115.3 656.265 109.2C656.265 103.2 654.665 98.5 651.465 95.1C648.265 91.7 644.165 90 639.165 90C634.165 90 630.065 91.7 626.865 95.1C623.665 98.5 622.065 103.2 622.065 109.2C622.065 115.3 623.665 120.1 626.865 123.6C630.065 127 634.165 128.7 639.165 128.7ZM723.812 78.45C726.712 74.75 730.462 72 735.062 70.2C739.762 68.3 745.112 67.35 751.112 67.35V93C748.512 92.7 746.362 92.55 744.662 92.55C738.562 92.55 733.762 94.2 730.262 97.5C726.862 100.8 725.162 105.85 725.162 112.65V150H696.662V68.7H723.812V78.45ZM799.641 129.6C803.541 129.6 806.891 129.05 809.691 127.95C812.591 126.85 815.491 125.05 818.391 122.55L833.241 138.15C825.541 146.95 814.041 151.35 798.741 151.35C789.241 151.35 780.891 149.55 773.691 145.95C766.491 142.35 760.891 137.35 756.891 130.95C752.991 124.55 751.041 117.3 751.041 109.2C751.041 101.2 752.991 94.05 756.891 87.75C760.791 81.35 766.141 76.35 772.941 72.75C779.841 69.15 787.541 67.35 796.041 67.35C803.941 67.35 811.141 69 817.641 72.3C824.241 75.5 829.491 80.25 833.391 86.55C837.291 92.75 839.241 100.15 839.241 108.75L781.191 119.85C784.291 126.35 790.441 129.6 799.641 129.6ZM796.191 87.6C791.291 87.6 787.291 89.15 784.191 92.25C781.091 95.25 779.341 99.6 778.941 105.3L811.941 98.85C810.941 95.45 809.041 92.75 806.241 90.75C803.441 88.65 800.091 87.6 796.191 87.6Z" fill="white"/>
<g clip-path="url(#clip0)">
<path d="M149.728 99.1551C151.196 90.0635 148.842 80.9548 143.1 73.5057C138.808 67.9377 133.149 64.1705 126.281 62.3083C122.814 61.3691 119.128 60.9388 115.276 61.0227C116.338 57.3208 116.86 53.6448 116.834 50.0528C116.782 42.9375 114.579 36.5061 110.287 30.938C104.545 23.4889 96.3344 18.8938 87.1688 17.9988C78.1112 17.1155 68.8379 19.9311 61.057 25.929C53.0486 32.1023 48.0613 40.7934 45.3609 53.2804C42.9457 64.4505 42.3937 78.2543 41.755 94.2392C41.5365 99.6977 41.2889 105.885 40.9473 112.375C40.8555 114.09 41.3877 115.791 42.4462 117.164C43.5042 118.536 45.0137 119.485 46.6937 119.832C53.0572 121.153 59.1068 122.49 64.4437 123.668C80.062 127.119 93.551 130.099 104.969 130.606C117.731 131.174 127.405 128.562 135.414 122.388C143.194 116.391 148.277 108.14 149.728 99.1551Z" fill="#80AE90"/>
</g>
<path opacity="0.3" d="M102.992 123.635C129.915 138.712 129.197 154.507 129.915 162.404C129.915 172.742 138.531 179.635 142.838 181.789C164.377 190.404 179.095 175.327 183.761 166.712C191.515 143.45 202.037 135.481 213.883 127.942C245.114 96.7117 208.531 74.8143 193.454 74.0963H129.915C92.8691 76.6809 84.6523 110.43 102.992 123.635Z" fill="#710A0A"/>
<defs>
<clipPath id="clip0">
<rect width="121.792" height="119.562" fill="white" transform="translate(94.6939) rotate(52.3732)"/>
</clipPath>
</defs>
</svg>
